<svg xmlns="http://www.w3.org/2000/svg" viewBox="0 0 64 64" width="64" height="64">
  <defs>
    <linearGradient id="heart" x1="0" y1="0" x2="0" y2="1">
      <stop offset="0%" stop-color="#F7CAD0"/>
      <stop offset="45%" stop-color="#E85D75"/>
      <stop offset="100%" stop-color="#C44569"/>
    </linearGradient>
    <radialGradient id="glow" cx="35%" cy="30%" r="65%">
      <stop offset="0%" stop-color="#FFF1F3" stop-opacity="0.9"/>
      <stop offset="100%" stop-color="#FFF1F3" stop-opacity="0"/>
    </radialGradient>
  </defs>
  <rect width="64" height="64" rx="16" fill="#FFF8F8"/>
  <path d="M32 54s-20-11.5-20-26.5C12 19.5 17.8 14 25 14c4.4 0 7.3 2.3 7 6.2C32.3 16.3 35.5 14 39.9 14 47 14 52 19.5 52 27.5 52 42.5 32 54 32 54Z" fill="url(#heart)"/>
  <path d="M32 54s-20-11.5-20-26.5C12 19.5 17.8 14 25 14c4.4 0 7.3 2.3 7 6.2C32.3 16.3 35.5 14 39.9 14 47 14 52 19.5 52 27.5 52 42.5 32 54 32 54Z" fill="url(#glow)"/>
  <ellipse cx="24" cy="26" rx="5" ry="3.4" fill="#FFFFFF" opacity="0.55" transform="rotate(-28 24 26)"/>
</svg>
